<svg width="1219" height="413" viewBox="0 0 1219 413" fill="none"
 xmlns="http://www.w3.org/2000/svg">
 <path fillRule="evenodd" clipRule="evenodd" d="M133.5 0.0784084C148.428 -0.820692 157.428 6.01261 160.5 20.5784C155.834 39.9104 144.501 45.2434 126.5 36.5784C114.139 21.7054 116.472 9.53871 133.5 0.0784084Z" fill="#1A90C0"/>
 <path fillRule="evenodd" clipRule="evenodd" d="M11 72.6411C24.0043 72.4741 37.0043 72.6411 50 73.1411C59.543 75.3981 63.043 81.2321 60.5 90.6411C59.3589 92.7501 57.8589 94.5831 56 96.1411C45.771 97.5921 35.4377 98.0921 25 97.6411C24.8333 163.309 25 228.975 25.5 294.641C34.0016 343.81 62.502 374.31 111 386.141C158.372 392.379 195.206 375.879 221.5 336.641C228.761 323.19 233.428 308.857 235.5 293.641C236 228.309 236.167 162.975 236 97.6411C226.328 97.8071 216.661 97.6411 207 97.1411C196.391 89.3001 196.391 81.4661 207 73.6411C221.322 72.4751 235.655 72.3081 250 73.1411C254.897 73.7071 258.397 76.2071 260.5 80.6411C261.167 153.308 261.167 225.974 260.5 298.641C251.541 349.233 223.708 384.733 177 405.141C118.6 423.069 69.1 409.569 28.5 364.641C13.559 345.514 4.22563 323.848 0.500025 299.641C-0.166675 226.641 -0.166675 153.641 0.500025 80.6411C2.77063 76.1851 6.27062 73.5191 11 72.6411Z" fill="#252525"/>
 <path fillRule="evenodd" clipRule="evenodd" d="M209.5 115.078C209.487 164.324 209.487 213.324 209.5 262.078C208.574 299.407 194.574 330.574 167.5 355.578C134.079 376.895 103.913 373.061 77 344.078C57.822 320.339 47.489 293.006 46 262.078C45.5 237.414 45.3334 212.747 45.5 188.078C64.503 188.245 83.503 188.078 102.5 187.578C110.236 186.812 117.569 184.812 124.5 181.578C130.022 178.516 135.355 175.183 140.5 171.578C154.509 156.568 168.176 141.235 181.5 125.578C189.62 118.816 198.954 115.316 209.5 115.078Z" fill="#1A90C0"/>
 <path fillRule="evenodd" clipRule="evenodd" d="M209.5 115.078C210.833 164.078 210.833 213.078 209.5 262.078C209.487 213.324 209.487 164.324 209.5 115.078Z" fill="#3D9DCE"/>
 <path fillRule="evenodd" clipRule="evenodd" d="M880 118.641C901.953 117.198 918.453 125.865 929.5 144.641C937.446 158.133 944.446 172.133 950.5 186.641C965.48 225.237 980.64 263.737 996 302.141C980.67 302.641 965.34 302.808 950 302.641C947.212 293.611 944.212 284.611 941 275.641C915.333 275.641 889.667 275.641 864 275.641C864 262.308 864 248.974 864 235.641C884.677 235.974 905.344 235.641 926 234.641C918.925 211.578 909.425 189.578 897.5 168.641C892.622 161.566 886.456 160.066 879 164.141C871.175 173.949 865.008 184.783 860.5 196.641C847.487 231.685 834.487 266.685 821.5 301.641C806.73 302.964 791.897 302.964 777 301.641C790.794 267.093 804.294 232.426 817.5 197.641C825.998 176.31 836.332 155.976 848.5 136.641C856.772 126.493 867.272 120.493 880 118.641Z" fill="#252525"/>
 <path fillRule="evenodd" clipRule="evenodd" d="M308.5 126.078C321.833 126.078 335.167 126.078 348.5 126.078C348.017 166.805 348.517 207.472 350 248.078C358.189 259.606 369.356 266.773 383.5 269.578C406.088 274.618 427.088 270.951 446.5 258.578C450.422 255.327 453.588 251.494 456 247.078C457.477 206.792 457.977 166.459 457.5 126.078C470.833 126.078 484.167 126.078 497.5 126.078C497.667 169.079 497.5 212.079 497 255.078C496.127 260.826 494.127 266.159 491 271.078C474.138 291.839 452.304 304.005 425.5 307.578C390.545 313.502 358.545 306.502 329.5 286.578C322.542 280.627 316.709 273.793 312 266.078C310.798 262.804 309.798 259.471 309 256.078C308.5 212.746 308.333 169.413 308.5 126.078Z" fill="#1A90C0"/>
 <path fillRule="evenodd" clipRule="evenodd" d="M652 261.641C688.83 262.639 725.83 262.973 763 262.641C763 275.641 763 288.641 763 301.641C719.665 301.808 676.332 301.641 633 301.141C615.846 296.992 603.013 287.159 594.5 271.641C587.055 256.529 583.055 240.529 582.5 223.641C582 190.643 581.833 157.643 582 124.641C595.667 124.641 609.333 124.641 623 124.641C622.538 162.009 623.038 199.342 624.5 236.641C627.879 251.527 637.046 259.86 652 261.641Z" fill="#252525"/>
 <path fillRule="evenodd" clipRule="evenodd" d="M1030.5 127.078C1068.5 126.911 1106.5 127.078 1144.5 127.578C1173.68 129.405 1192.52 144.238 1201 172.078C1202.86 183.584 1201.02 194.417 1195.5 204.578C1217.39 221.3 1223.89 242.8 1215 269.078C1204.32 289.409 1187.49 300.576 1164.5 302.578C1119.83 303.245 1075.17 303.245 1030.5 302.578C1022.48 300.814 1017.31 295.98 1015 288.078C1014.33 239.411 1014.33 190.745 1015 142.078C1017.56 134.244 1022.72 129.244 1030.5 127.078Z" fill="#252525"/>
 <path fillRule="evenodd" clipRule="evenodd" d="M1060.5 167.078C1089.17 166.911 1117.84 167.078 1146.5 167.578C1155.92 169.314 1160.42 174.814 1160 184.078C1157.25 189.168 1153.08 192.335 1147.5 193.578C1116.5 194.078 1085.5 194.245 1054.5 194.078C1054.1 185.993 1054.6 177.993 1056 170.078C1057.41 168.797 1058.91 167.797 1060.5 167.078Z" fill="#FDFDFD"/>
 <path fillRule="evenodd" clipRule="evenodd" d="M520.5 196.078C535.515 195.745 550.515 196.079 565.5 197.078C562.232 204.217 559.565 211.55 557.5 219.078C542.5 219.078 527.5 219.078 512.5 219.078C514.881 211.316 517.547 203.649 520.5 196.078Z" fill="#1A90C0"/>
 <path fillRule="evenodd" clipRule="evenodd" d="M158.5 203.078C161.187 202.914 163.854 203.081 166.5 203.578C168.743 206.066 170.743 208.732 172.5 211.578C172.446 214.777 172.446 217.944 172.5 221.078C169.996 229.767 164.663 232.267 156.5 228.578C150.697 219.346 151.364 210.846 158.5 203.078Z" fill="#FAFCFC"/>
 <path fillRule="evenodd" clipRule="evenodd" d="M1165.5 235.078C1128.83 235.078 1092.17 235.078 1055.5 235.078C1055.5 242.411 1055.5 249.745 1055.5 257.078C1054.51 249.596 1054.17 241.93 1054.5 234.078C1091.67 233.746 1128.67 234.08 1165.5 235.078Z" fill="#E8E8E8"/>
 <path fillRule="evenodd" clipRule="evenodd" d="M125.5 232.078C133.814 233.995 137.814 239.328 137.5 248.078C138.079 256.269 134.579 261.603 127 264.078C119.412 261.541 115.912 256.208 116.5 248.078C116.432 240.869 119.432 235.535 125.5 232.078Z" fill="#FBFCFC"/>
 <path fillRule="evenodd" clipRule="evenodd" d="M1165.5 235.078C1175.62 238.314 1179.12 244.981 1176 255.078C1173.51 258.41 1170.34 260.91 1166.5 262.578C1131.17 263.245 1095.83 263.245 1060.5 262.578C1057.58 261.826 1055.91 259.993 1055.5 257.078C1055.5 249.745 1055.5 242.411 1055.5 235.078C1092.17 235.078 1128.83 235.078 1165.5 235.078Z" fill="#FDFDFD"/>
 <path fillRule="evenodd" clipRule="evenodd" d="M152.5 262.078C161.544 261.376 167.877 265.209 171.5 273.578C175.919 286.219 174.419 298.053 167 309.078C153.605 317.233 143.938 313.9 138 299.078C137.099 290.999 137.432 282.999 139 275.078C141.468 268.44 145.968 264.106 152.5 262.078Z" fill="#FCFDFD"/>
 <path fillRule="evenodd" clipRule="evenodd" d="M649.5 263.078C686.833 263.078 724.167 263.078 761.5 263.078C761.829 276.588 761.496 289.922 760.5 303.078C760.5 290.078 760.5 277.078 760.5 264.078C723.33 264.41 686.33 264.076 649.5 263.078Z" fill="#B7B7B7"/>
</svg>
