<svg width="261" height="413" viewBox="0 0 261 413" fill="none" xmlns="http://www.w3.org/2000/svg">
<path fill-rule="evenodd" clip-rule="evenodd" d="M133.5 0.0784084C148.428 -0.820692 157.428 6.01261 160.5 20.5784C155.834 39.9104 144.501 45.2434 126.5 36.5784C114.139 21.7054 116.472 9.53871 133.5 0.0784084Z" fill="#1A90C0"/>
<path fill-rule="evenodd" clip-rule="evenodd" d="M11 72.641C24.0043 72.474 37.0043 72.641 50 73.141C59.543 75.398 63.043 81.232 60.5 90.641C59.3589 92.75 57.8589 94.583 56 96.141C45.771 97.592 35.4377 98.092 25 97.641C24.8333 163.309 25 228.975 25.5 294.641C34.0016 343.81 62.502 374.31 111 386.141C158.372 392.379 195.206 375.879 221.5 336.641C228.761 323.19 233.428 308.857 235.5 293.641C236 228.309 236.167 162.975 236 97.641C226.328 97.807 216.661 97.641 207 97.141C196.391 89.3 196.391 81.466 207 73.641C221.322 72.475 235.655 72.308 250 73.141C254.897 73.707 258.397 76.207 260.5 80.641C261.167 153.308 261.167 225.974 260.5 298.641C251.541 349.233 223.708 384.733 177 405.141C118.6 423.069 69.1 409.569 28.5 364.641C13.559 345.514 4.22563 323.848 0.500025 299.641C-0.166675 226.641 -0.166675 153.641 0.500025 80.641C2.77063 76.185 6.27062 73.519 11 72.641Z" fill="#252525"/>
<path fill-rule="evenodd" clip-rule="evenodd" d="M209.5 115.078C209.487 164.324 209.487 213.324 209.5 262.078C208.574 299.407 194.574 330.574 167.5 355.578C134.079 376.895 103.913 373.061 77 344.078C57.822 320.339 47.489 293.006 46 262.078C45.5 237.414 45.3334 212.747 45.5 188.078C64.503 188.245 83.503 188.078 102.5 187.578C110.236 186.812 117.569 184.812 124.5 181.578C130.022 178.516 135.355 175.183 140.5 171.578C154.509 156.568 168.176 141.235 181.5 125.578C189.62 118.816 198.954 115.316 209.5 115.078Z" fill="#1A90C0"/>
<path fill-rule="evenodd" clip-rule="evenodd" d="M125.5 232.078C133.814 233.995 137.814 239.328 137.5 248.078C138.079 256.269 134.579 261.603 127 264.078C119.412 261.541 115.912 256.208 116.5 248.078C116.432 240.869 119.432 235.535 125.5 232.078Z" fill="#FBFCFC"/>
<path fill-rule="evenodd" clip-rule="evenodd" d="M152.5 262.078C161.544 261.376 167.877 265.209 171.5 273.578C175.919 286.219 174.419 298.053 167 309.078C153.605 317.233 143.938 313.9 138 299.078C137.099 290.999 137.432 282.999 139 275.078C141.468 268.44 145.968 264.106 152.5 262.078Z" fill="#FCFDFD"/>
</svg>
